<?xml version="1.0" encoding="UTF-8" standalone="no"?>
<!-- Created with Inkscape (http://www.inkscape.org/) -->

<svg
   width="35.844719mm"
   height="210mm"
   viewBox="0 0 35.844719 209.99999"
   version="1.1"
   id="svg1"
   xml:space="preserve"
   sodipodi:docname="bottom_fire_layer_0_cropped_thin_right_side.svg"
   inkscape:version="1.4 (86a8ad7, 2024-10-11)"
   xmlns:inkscape="http://www.inkscape.org/namespaces/inkscape"
   xmlns:sodipodi="http://sodipodi.sourceforge.net/DTD/sodipodi-0.dtd"
   xmlns="http://www.w3.org/2000/svg"
   xmlns:svg="http://www.w3.org/2000/svg"><sodipodi:namedview
     id="namedview1"
     pagecolor="#505050"
     bordercolor="#eeeeee"
     borderopacity="1"
     inkscape:showpageshadow="0"
     inkscape:pageopacity="0"
     inkscape:pagecheckerboard="0"
     inkscape:deskcolor="#505050"
     inkscape:document-units="mm"
     inkscape:zoom="0.78978145"
     inkscape:cx="15.827163"
     inkscape:cy="391.88056"
     inkscape:window-width="1920"
     inkscape:window-height="991"
     inkscape:window-x="-9"
     inkscape:window-y="-9"
     inkscape:window-maximized="1"
     inkscape:current-layer="svg1" /><defs
     id="defs1" /><g
     id="layer1"
     transform="rotate(-90,-20.854017,230.85403)"
     style="display:inline"><g
       id="g1"
       transform="matrix(0.52872219,0,0,0.52872219,91.310444,282.68071)"><g
         id="g149"
         style="display:inline"
         transform="translate(-1.7106397e-5,-11.654109)"><path
           style="display:inline;fill:#ed7d31;fill-opacity:1;fill-rule:nonzero;stroke:none;stroke-width:1.4677;paint-order:markers stroke fill"
           d="m -29.417989,-8.7714229 c 2.956774,-6.9428931 1.862544,-6.7305591 2.719772,-9.6596951 0.131251,-0.448457 0.812011,-0.826079 1.264529,-0.998501 4.865224,-1.854003 6.68122,-3.259196 10.932558,-8.882158 0.37328,-0.493694 0.80853,-0.48184 0.821162,0.07241 0.05919,2.6001 -0.325734,9.346893 -0.848247,11.219992 -1.058013,3.792685 -5.143119,8.0119321 -5.829811,8.4524271 -2.5078,1.540274 -5.519382,0.964312 -8.308947,0.943781 -0.690465,-0.0041 -0.886392,-0.830344 -0.751001,-1.14825 0.135385,-0.317902 -10e-6,-9e-6 -10e-6,-9e-6 z"
           id="path145" /><path
           style="fill:#ed7d31;fill-opacity:1;fill-rule:nonzero;stroke:none;stroke-width:2.30647;paint-order:markers stroke fill"
           d="m -17.704534,-43.006943 c 0,0 2.068749,-0.100789 2.981454,-0.163062 0.912708,-0.06226 1.201757,0.427089 0.975961,1.83214 -0.225796,1.405052 -1.15574,3.308419 -2.066748,4.72205 -0.911008,1.41363 -1.105787,1.240308 -2.062403,1.516177 -0.956599,0.275884 -2.820798,0.692628 -3.302409,0.705787 -0.481634,0.01309 -1.186653,-0.13962 -1.479264,-0.575558 -0.292604,-0.435919 -0.137424,-0.979337 0.114202,-1.585387 0.251613,-0.606057 2.699233,-4.827032 3.056995,-5.35149 0.357772,-0.524461 0.737807,-1.007144 1.782232,-1.100569 1.044428,-0.09342 -2e-5,-8.8e-5 -2e-5,-8.8e-5 z"
           id="path148" /><path
           style="fill:#ed7d31;fill-opacity:1;stroke-width:0.370417;stroke-linecap:round;stroke-linejoin:round;stroke-dashoffset:344.693;paint-order:stroke fill markers"
           d="m -172.70021,20.868882 c 0,0 18.91352,-7.565397 58.38905,-14.069975 15.99256,-2.6351733 13.48234,-12.4089457 13.48234,-12.4089457 0,0 8.781215,7.3575519 -2.06992,14.2798325 -11.27283,7.1912852 5.360358,9.1214192 35.172661,-0.1125879 27.420541,-8.49318749 19.855131,-16.058597 19.855131,-16.058597 0,0 10.851728,3.2162447 -0.575598,13.8511398 -27.794689,25.8672603 55.8811497,-6.87952401 80.012402,-11.9597874 35.935697,-7.5654093 62.414632,3.7827047 62.414632,3.7827047 0,0 -39.010221,-2.9115555 -35.935697,7.5654095 C 61.119316,16.215041 83.897169,10.446767 96.341404,7.5381584 125.8078,0.65093332 141.2643,-30.19762 101.5459,-32.957132 c 34.04434,-12.371307 39.28357,25.6113262 76.38236,22.696505 37.09879,-2.914821 12.5112,-31.285107 8.7285,-35.067812 2.84664,-0.282683 14.10323,6.008243 21.23676,10.569531 5.83051,3.728117 16.59029,13.100537 16.59029,32.931574 l 2e-5,22.696224 z"
           id="path1"
           sodipodi:nodetypes="cscsscsscsscscsscc" /><path
           style="display:inline;fill:#ed7d31;fill-opacity:1;fill-rule:nonzero;stroke:none;stroke-width:0.984723;paint-order:markers stroke fill"
           d="m 109.27757,-8.8451606 c -0.80199,-4.9990994 -1.34747,-4.4875114 -1.9074,-6.4571394 -0.0857,-0.301563 0.1659,-0.759259 0.36126,-1.018866 2.10019,-2.791348 2.62927,-4.238222 3.03406,-8.950396 0.0356,-0.413729 0.28694,-0.562536 0.49218,-0.252317 0.96274,1.455312 3.15506,5.424018 3.52769,6.674374 0.75451,2.531748 -0.0575,6.387421 -0.29003,6.88294 -0.87364,1.770796 -2.78958,2.5198981 -4.38098,3.5050634 -0.39354,0.244405 -0.80006,-0.154769 -0.83677,-0.383665 -0.0367,-0.2289 0,3e-6 0,3e-6 z"
           id="path2" /></g></g></g></svg>
